<svg width="21" height="30" viewBox="0 0 21 30" fill="none" xmlns="http://www.w3.org/2000/svg">
<mask id="mask0_11_906" style="mask-type:luminance" maskUnits="userSpaceOnUse" x="0" y="0" width="21" height="30">
<path d="M20.5 0H0.5V30H20.5V0Z" fill="white"/>
</mask>
<g mask="url(#mask0_11_906)">
<path d="M10.8633 -2.628e-05C9.74366 0.000300288 8.66993 0.446127 7.87818 1.23945C7.08645 2.03277 6.64153 3.10865 6.64119 4.23057V6.15245H4.72315C4.16829 6.15198 3.61877 6.26117 3.10606 6.47372C2.59334 6.68628 2.12749 6.99807 1.73515 7.39121C1.34281 7.78434 1.03169 8.25116 0.819585 8.7649C0.607479 9.27866 0.498552 9.82928 0.499037 10.3853V14.6144H6.6402V18.4581H4.72216C3.60216 18.458 2.52796 18.9036 1.73581 19.697C0.943668 20.4903 0.498438 21.5664 0.498047 22.6887V29.9977H4.72414C5.27848 29.9975 5.82732 29.8878 6.33936 29.6749C6.85138 29.4621 7.31654 29.1503 7.70831 28.7573C8.10005 28.3644 8.41071 27.8979 8.62254 27.3845C8.83435 26.8711 8.94319 26.3212 8.94283 25.7658H8.94825V22.9734L8.93694 22.9749V5.18535L8.94629 5.18757V4.23131C8.94726 3.72141 9.14949 3.2326 9.50883 2.87157C9.86816 2.51053 10.3554 2.3066 10.8643 2.30425H18.1994V4.23131C18.1978 4.74097 17.9949 5.22927 17.635 5.58942C17.2751 5.94957 16.7875 6.15228 16.2789 6.15319H9.81433V8.45993H16.2779C17.3976 8.46 18.4714 8.01439 19.2632 7.22114C20.055 6.4279 20.4999 5.352 20.5 4.23008V-0.000518799L10.8633 -2.628e-05ZM6.64119 12.3074H2.80363V10.3855C2.80448 9.875 3.00694 9.3856 3.36681 9.02423C3.72667 8.66288 4.21467 8.45892 4.72414 8.45698H6.64218L6.64119 12.3074ZM6.64119 25.7679C6.64035 26.2775 6.43806 26.7661 6.0786 27.1265C5.71913 27.4872 5.23176 27.6904 4.72315 27.6917H2.80264V22.6899C2.80311 22.1799 3.00568 21.6911 3.3658 21.3306C3.72595 20.9702 4.21416 20.7679 4.72315 20.7681H6.64119V25.7679ZM9.81433 14.6141H14.6586V16.538C14.6567 17.0475 14.4537 17.5357 14.0939 17.8957C13.7341 18.2558 13.2466 18.4586 12.7381 18.4598H9.81433V20.7681H12.7391C13.2936 20.7684 13.8428 20.6591 14.3552 20.4466C14.8675 20.2341 15.3331 19.9225 15.7252 19.5296C16.1174 19.1367 16.4283 18.6702 16.6404 18.1568C16.8525 17.6434 16.9615 17.0931 16.9612 16.5375H16.9632V12.3069H9.81433V14.6141Z" fill="#18988B"/>
</g>
</svg>
